%TF.GenerationSoftware,KiCad,Pcbnew,(6.0.9)*%
%TF.CreationDate,2022-12-01T08:12:18+00:00*%
%TF.ProjectId,Traffic Light,54726166-6669-4632-904c-696768742e6b,rev?*%
%TF.SameCoordinates,Original*%
%TF.FileFunction,Legend,Bot*%
%TF.FilePolarity,Positive*%
%FSLAX46Y46*%
G04 Gerber Fmt 4.6, Leading zero omitted, Abs format (unit mm)*
G04 Created by KiCad (PCBNEW (6.0.9)) date 2022-12-01 08:12:18*
%MOMM*%
%LPD*%
G01*
G04 APERTURE LIST*
%ADD10C,0.150000*%
%ADD11C,0.120000*%
G04 APERTURE END LIST*
D10*
%TO.C,J1*%
X149582380Y-113271666D02*
X150296666Y-113271666D01*
X150439523Y-113224047D01*
X150534761Y-113128809D01*
X150582380Y-112985952D01*
X150582380Y-112890714D01*
X150582380Y-114271666D02*
X150582380Y-113700238D01*
X150582380Y-113985952D02*
X149582380Y-113985952D01*
X149725238Y-113890714D01*
X149820476Y-113795476D01*
X149868095Y-113700238D01*
D11*
X152560000Y-113320000D02*
X152560000Y-119320000D01*
X156210000Y-110660000D02*
X156210000Y-113320000D01*
X154560000Y-113320000D02*
X154560000Y-119320000D01*
X155320000Y-119320000D02*
X155320000Y-113320000D01*
X152780000Y-119320000D02*
X152780000Y-113320000D01*
X151070000Y-113320000D02*
X151070000Y-110660000D01*
X160400000Y-110262929D02*
X160400000Y-110660000D01*
X151130000Y-107950000D02*
X151130000Y-109220000D01*
X152780000Y-110330000D02*
X152780000Y-110660000D01*
X159640000Y-110262929D02*
X159640000Y-110660000D01*
X151070000Y-110660000D02*
X161350000Y-110660000D01*
X152200000Y-113320000D02*
X152200000Y-119320000D01*
X152020000Y-113320000D02*
X152020000Y-119320000D01*
X153670000Y-110660000D02*
X153670000Y-113320000D01*
X152400000Y-107950000D02*
X151130000Y-107950000D01*
X152320000Y-113320000D02*
X152320000Y-119320000D01*
X157100000Y-113320000D02*
X157100000Y-119320000D01*
X152080000Y-113320000D02*
X152080000Y-119320000D01*
X158750000Y-110660000D02*
X158750000Y-113320000D01*
X152440000Y-113320000D02*
X152440000Y-119320000D01*
X152020000Y-110330000D02*
X152020000Y-110660000D01*
X152680000Y-113320000D02*
X152680000Y-119320000D01*
X159640000Y-113320000D02*
X159640000Y-119320000D01*
X154560000Y-119320000D02*
X155320000Y-119320000D01*
X157100000Y-110262929D02*
X157100000Y-110660000D01*
X154560000Y-110262929D02*
X154560000Y-110660000D01*
X161350000Y-113320000D02*
X151070000Y-113320000D01*
X159640000Y-119320000D02*
X160400000Y-119320000D01*
X157860000Y-119320000D02*
X157860000Y-113320000D01*
X155320000Y-110262929D02*
X155320000Y-110660000D01*
X161350000Y-110660000D02*
X161350000Y-113320000D01*
X160400000Y-119320000D02*
X160400000Y-113320000D01*
X152020000Y-119320000D02*
X152780000Y-119320000D01*
X157860000Y-110262929D02*
X157860000Y-110660000D01*
X157100000Y-119320000D02*
X157860000Y-119320000D01*
%TD*%
M02*
