%TF.GenerationSoftware,KiCad,Pcbnew,(6.0.9)*%
%TF.CreationDate,2022-12-01T08:12:18+00:00*%
%TF.ProjectId,Traffic Light,54726166-6669-4632-904c-696768742e6b,rev?*%
%TF.SameCoordinates,Original*%
%TF.FileFunction,Legend,Top*%
%TF.FilePolarity,Positive*%
%FSLAX46Y46*%
G04 Gerber Fmt 4.6, Leading zero omitted, Abs format (unit mm)*
G04 Created by KiCad (PCBNEW (6.0.9)) date 2022-12-01 08:12:18*
%MOMM*%
%LPD*%
G01*
G04 APERTURE LIST*
%ADD10C,0.150000*%
%ADD11C,0.120000*%
G04 APERTURE END LIST*
D10*
X151638095Y-106180000D02*
X151542857Y-106132380D01*
X151400000Y-106132380D01*
X151257142Y-106180000D01*
X151161904Y-106275238D01*
X151114285Y-106370476D01*
X151066666Y-106560952D01*
X151066666Y-106703809D01*
X151114285Y-106894285D01*
X151161904Y-106989523D01*
X151257142Y-107084761D01*
X151400000Y-107132380D01*
X151495238Y-107132380D01*
X151638095Y-107084761D01*
X151685714Y-107037142D01*
X151685714Y-106703809D01*
X151495238Y-106703809D01*
X152114285Y-107132380D02*
X152114285Y-106132380D01*
X152685714Y-107132380D01*
X152685714Y-106132380D01*
X153161904Y-107132380D02*
X153161904Y-106132380D01*
X153400000Y-106132380D01*
X153542857Y-106180000D01*
X153638095Y-106275238D01*
X153685714Y-106370476D01*
X153733333Y-106560952D01*
X153733333Y-106703809D01*
X153685714Y-106894285D01*
X153638095Y-106989523D01*
X153542857Y-107084761D01*
X153400000Y-107132380D01*
X153161904Y-107132380D01*
%TO.C,D2*%
X155471904Y-87232380D02*
X155471904Y-86232380D01*
X155710000Y-86232380D01*
X155852857Y-86280000D01*
X155948095Y-86375238D01*
X155995714Y-86470476D01*
X156043333Y-86660952D01*
X156043333Y-86803809D01*
X155995714Y-86994285D01*
X155948095Y-87089523D01*
X155852857Y-87184761D01*
X155710000Y-87232380D01*
X155471904Y-87232380D01*
X156424285Y-86327619D02*
X156471904Y-86280000D01*
X156567142Y-86232380D01*
X156805238Y-86232380D01*
X156900476Y-86280000D01*
X156948095Y-86327619D01*
X156995714Y-86422857D01*
X156995714Y-86518095D01*
X156948095Y-86660952D01*
X156376666Y-87232380D01*
X156995714Y-87232380D01*
%TO.C,R1*%
X154773333Y-96972380D02*
X154440000Y-96496190D01*
X154201904Y-96972380D02*
X154201904Y-95972380D01*
X154582857Y-95972380D01*
X154678095Y-96020000D01*
X154725714Y-96067619D01*
X154773333Y-96162857D01*
X154773333Y-96305714D01*
X154725714Y-96400952D01*
X154678095Y-96448571D01*
X154582857Y-96496190D01*
X154201904Y-96496190D01*
X155725714Y-96972380D02*
X155154285Y-96972380D01*
X155440000Y-96972380D02*
X155440000Y-95972380D01*
X155344761Y-96115238D01*
X155249523Y-96210476D01*
X155154285Y-96258095D01*
%TO.C,H2*%
X164338095Y-73152380D02*
X164338095Y-72152380D01*
X164338095Y-72628571D02*
X164909523Y-72628571D01*
X164909523Y-73152380D02*
X164909523Y-72152380D01*
X165338095Y-72247619D02*
X165385714Y-72200000D01*
X165480952Y-72152380D01*
X165719047Y-72152380D01*
X165814285Y-72200000D01*
X165861904Y-72247619D01*
X165909523Y-72342857D01*
X165909523Y-72438095D01*
X165861904Y-72580952D01*
X165290476Y-73152380D01*
X165909523Y-73152380D01*
%TO.C,D3*%
X155471904Y-94852380D02*
X155471904Y-93852380D01*
X155710000Y-93852380D01*
X155852857Y-93900000D01*
X155948095Y-93995238D01*
X155995714Y-94090476D01*
X156043333Y-94280952D01*
X156043333Y-94423809D01*
X155995714Y-94614285D01*
X155948095Y-94709523D01*
X155852857Y-94804761D01*
X155710000Y-94852380D01*
X155471904Y-94852380D01*
X156376666Y-93852380D02*
X156995714Y-93852380D01*
X156662380Y-94233333D01*
X156805238Y-94233333D01*
X156900476Y-94280952D01*
X156948095Y-94328571D01*
X156995714Y-94423809D01*
X156995714Y-94661904D01*
X156948095Y-94757142D01*
X156900476Y-94804761D01*
X156805238Y-94852380D01*
X156519523Y-94852380D01*
X156424285Y-94804761D01*
X156376666Y-94757142D01*
%TO.C,H3*%
X146558095Y-101092380D02*
X146558095Y-100092380D01*
X146558095Y-100568571D02*
X147129523Y-100568571D01*
X147129523Y-101092380D02*
X147129523Y-100092380D01*
X147510476Y-100092380D02*
X148129523Y-100092380D01*
X147796190Y-100473333D01*
X147939047Y-100473333D01*
X148034285Y-100520952D01*
X148081904Y-100568571D01*
X148129523Y-100663809D01*
X148129523Y-100901904D01*
X148081904Y-100997142D01*
X148034285Y-101044761D01*
X147939047Y-101092380D01*
X147653333Y-101092380D01*
X147558095Y-101044761D01*
X147510476Y-100997142D01*
%TO.C,R3*%
X159853333Y-96972380D02*
X159520000Y-96496190D01*
X159281904Y-96972380D02*
X159281904Y-95972380D01*
X159662857Y-95972380D01*
X159758095Y-96020000D01*
X159805714Y-96067619D01*
X159853333Y-96162857D01*
X159853333Y-96305714D01*
X159805714Y-96400952D01*
X159758095Y-96448571D01*
X159662857Y-96496190D01*
X159281904Y-96496190D01*
X160186666Y-95972380D02*
X160805714Y-95972380D01*
X160472380Y-96353333D01*
X160615238Y-96353333D01*
X160710476Y-96400952D01*
X160758095Y-96448571D01*
X160805714Y-96543809D01*
X160805714Y-96781904D01*
X160758095Y-96877142D01*
X160710476Y-96924761D01*
X160615238Y-96972380D01*
X160329523Y-96972380D01*
X160234285Y-96924761D01*
X160186666Y-96877142D01*
%TO.C,H1*%
X146558095Y-73152380D02*
X146558095Y-72152380D01*
X146558095Y-72628571D02*
X147129523Y-72628571D01*
X147129523Y-73152380D02*
X147129523Y-72152380D01*
X148129523Y-73152380D02*
X147558095Y-73152380D01*
X147843809Y-73152380D02*
X147843809Y-72152380D01*
X147748571Y-72295238D01*
X147653333Y-72390476D01*
X147558095Y-72438095D01*
%TO.C,D1*%
X155471904Y-79612380D02*
X155471904Y-78612380D01*
X155710000Y-78612380D01*
X155852857Y-78660000D01*
X155948095Y-78755238D01*
X155995714Y-78850476D01*
X156043333Y-79040952D01*
X156043333Y-79183809D01*
X155995714Y-79374285D01*
X155948095Y-79469523D01*
X155852857Y-79564761D01*
X155710000Y-79612380D01*
X155471904Y-79612380D01*
X156995714Y-79612380D02*
X156424285Y-79612380D01*
X156710000Y-79612380D02*
X156710000Y-78612380D01*
X156614761Y-78755238D01*
X156519523Y-78850476D01*
X156424285Y-78898095D01*
%TO.C,R2*%
X157313333Y-96972380D02*
X156980000Y-96496190D01*
X156741904Y-96972380D02*
X156741904Y-95972380D01*
X157122857Y-95972380D01*
X157218095Y-96020000D01*
X157265714Y-96067619D01*
X157313333Y-96162857D01*
X157313333Y-96305714D01*
X157265714Y-96400952D01*
X157218095Y-96448571D01*
X157122857Y-96496190D01*
X156741904Y-96496190D01*
X157694285Y-96067619D02*
X157741904Y-96020000D01*
X157837142Y-95972380D01*
X158075238Y-95972380D01*
X158170476Y-96020000D01*
X158218095Y-96067619D01*
X158265714Y-96162857D01*
X158265714Y-96258095D01*
X158218095Y-96400952D01*
X157646666Y-96972380D01*
X158265714Y-96972380D01*
%TO.C,H4*%
X164338095Y-101092380D02*
X164338095Y-100092380D01*
X164338095Y-100568571D02*
X164909523Y-100568571D01*
X164909523Y-101092380D02*
X164909523Y-100092380D01*
X165814285Y-100425714D02*
X165814285Y-101092380D01*
X165576190Y-100044761D02*
X165338095Y-100759047D01*
X165957142Y-100759047D01*
D11*
%TO.C,D2*%
X157770000Y-82740000D02*
X157770000Y-82584000D01*
X157770000Y-85056000D02*
X157770000Y-84900000D01*
X154537665Y-84898608D02*
G75*
G03*
X157770000Y-85055516I1672335J1078608D01*
G01*
X155168870Y-84899837D02*
G75*
G03*
X157250961Y-84900000I1041130J1079837D01*
G01*
X157250961Y-82740000D02*
G75*
G03*
X155168870Y-82740163I-1040961J-1080000D01*
G01*
X157770000Y-82584484D02*
G75*
G03*
X154537665Y-82741392I-1560000J-1235516D01*
G01*
%TO.C,R1*%
X154020000Y-99680000D02*
X154020000Y-103520000D01*
X155860000Y-99680000D02*
X155860000Y-103520000D01*
%TO.C,D3*%
X157770000Y-90360000D02*
X157770000Y-90204000D01*
X157770000Y-92676000D02*
X157770000Y-92520000D01*
X154537665Y-92518608D02*
G75*
G03*
X157770000Y-92675516I1672335J1078608D01*
G01*
X155168870Y-92519837D02*
G75*
G03*
X157250961Y-92520000I1041130J1079837D01*
G01*
X157250961Y-90360000D02*
G75*
G03*
X155168870Y-90360163I-1040961J-1080000D01*
G01*
X157770000Y-90204484D02*
G75*
G03*
X154537665Y-90361392I-1560000J-1235516D01*
G01*
%TO.C,R3*%
X160940000Y-99680000D02*
X160940000Y-103520000D01*
X159100000Y-99680000D02*
X159100000Y-103520000D01*
%TO.C,D1*%
X157770000Y-75120000D02*
X157770000Y-74964000D01*
X157770000Y-77436000D02*
X157770000Y-77280000D01*
X154537665Y-77278608D02*
G75*
G03*
X157770000Y-77435516I1672335J1078608D01*
G01*
X155168870Y-77279837D02*
G75*
G03*
X157250961Y-77280000I1041130J1079837D01*
G01*
X157770000Y-74964484D02*
G75*
G03*
X154537665Y-75121392I-1560000J-1235516D01*
G01*
X157250961Y-75120000D02*
G75*
G03*
X155168870Y-75120163I-1040961J-1080000D01*
G01*
%TO.C,R2*%
X158400000Y-99680000D02*
X158400000Y-103520000D01*
X156560000Y-99680000D02*
X156560000Y-103520000D01*
%TD*%
M02*
